<svg width="24" height="24" viewBox="0 0 24 24" fill="none" xmlns="http://www.w3.org/2000/svg">
<path d="M9.91296 20.7446V22.7348C9.91296 23.3853 9.41533 23.8829 8.76477 23.8829L1.14819 23.8831C0.497621 23.8831 0 23.3855 0 22.7349V15.1564C0 14.5058 0.497621 14.0082 1.14819 14.0082H3.13835V18.8305C3.13835 19.9022 4.01861 20.7443 5.05214 20.7443L9.91296 20.7446Z" fill="#7A57D1"/>
<path d="M8.76519 14.0081H3.94238V18.8304C3.94238 19.481 4.44 19.9786 5.09057 19.9786L9.91338 19.9788V15.156C9.91338 14.5437 9.41576 14.0078 8.76519 14.0078V14.0081Z" fill="#7A57D1"/>
<path d="M22.8881 4.57668e-05H5.09057C4.4781 4.57668e-05 3.94238 0.497667 3.94238 1.14823V13.2813H8.76519C9.83682 13.2813 10.679 14.1615 10.679 15.1951V20.0174H22.85C23.5006 20.0174 23.9982 19.4815 23.9982 18.8692L23.998 1.14819C24.0363 0.497622 23.5004 0 22.8881 0L22.8881 4.57668e-05ZM22.1225 2.29661L21.5866 5.39686C21.51 5.89448 20.7446 5.77965 20.8212 5.28202L21.1274 3.36824L12.2094 12.2862C12.0563 12.4393 11.8266 12.4393 11.6735 12.2862C11.5204 12.1331 11.5204 11.9034 11.6735 11.7503L20.6295 2.83233L18.7157 3.13857C18.5243 3.17685 18.2947 3.02373 18.2564 2.83233C18.2181 2.64094 18.3712 2.41126 18.5626 2.373L21.6629 1.83709C21.9308 1.83727 22.1605 2.02867 22.1222 2.29661L22.1225 2.29661Z" fill="#7A57D1"/>
</svg>
