<svg width="18" height="18" viewBox="0 0 18 18" fill="none" xmlns="http://www.w3.org/2000/svg">
<path d="M15.6 0H2.4C1.07452 0 0 1.07452 0 2.4V15.6C0 16.9255 1.07452 18 2.4 18H15.6C16.9255 18 18 16.9255 18 15.6V2.4C18 1.07452 16.9255 0 15.6 0Z" fill="#252F3E"/>
<path d="M5.90462 8.46606C5.90462 8.64318 5.9237 8.78682 5.957 8.89212C5.99931 9.01059 6.05027 9.12581 6.10946 9.23682C6.13328 9.2751 6.14282 9.31344 6.14282 9.34692C6.14282 9.3948 6.11426 9.44268 6.05228 9.49056L5.7521 9.69162C5.7092 9.72036 5.66636 9.7347 5.6282 9.7347C5.58056 9.7347 5.53292 9.71076 5.48528 9.66768C5.42105 9.59833 5.36361 9.52298 5.31374 9.44268L5.16602 9.16026C4.79438 9.60066 4.32752 9.82092 3.76532 9.82092C3.36512 9.82092 3.04592 9.70602 2.81246 9.47622C2.579 9.24642 2.46002 8.94 2.46002 8.55702C2.46002 8.1501 2.60294 7.8198 2.89358 7.57086C3.18422 7.32192 3.57014 7.19748 4.06082 7.19748C4.22282 7.19748 4.38956 7.21182 4.56584 7.23576C4.74212 7.2597 4.92314 7.29798 5.11376 7.34106V6.99162C5.11376 6.62778 5.03756 6.37404 4.88984 6.22566C4.73738 6.07728 4.4801 6.00546 4.11326 6.00546C3.94652 6.00546 3.77498 6.0246 3.5987 6.06768C3.42242 6.11076 3.25088 6.16344 3.08414 6.23046C3.00794 6.264 2.95076 6.28314 2.9174 6.29268C2.88404 6.30222 2.86022 6.30702 2.8412 6.30702C2.77448 6.30702 2.74112 6.25914 2.74112 6.15864V5.92404C2.74112 5.84742 2.75066 5.79 2.77448 5.75646C2.7983 5.72292 2.8412 5.68944 2.90786 5.6559C3.0746 5.56974 3.2747 5.49792 3.50816 5.4405C3.74162 5.37828 3.98936 5.34954 4.25138 5.34954C4.81832 5.34954 5.23286 5.47878 5.49962 5.73732C5.76164 5.99586 5.89508 6.38838 5.89508 6.915V8.46606H5.90462ZM3.97028 9.19374C4.12748 9.19374 4.28948 9.165 4.46102 9.10758C4.63256 9.05016 4.78502 8.9448 4.91366 8.80122C4.98986 8.71026 5.04704 8.60976 5.07566 8.49486C5.10428 8.37996 5.1233 8.24112 5.1233 8.0784V7.87734C4.98512 7.8438 4.83746 7.81512 4.685 7.79598C4.53647 7.77702 4.3869 7.76742 4.23716 7.76724C3.91796 7.76724 3.6845 7.82946 3.5273 7.9587C3.3701 8.08794 3.29384 8.26986 3.29384 8.50926C3.29384 8.73426 3.35102 8.90184 3.47012 9.01668C3.58448 9.13638 3.75122 9.1938 3.9704 9.1938L3.97028 9.19374ZM7.79606 9.71076C7.71032 9.71076 7.65314 9.69642 7.61504 9.66288C7.57694 9.63414 7.54358 9.56712 7.51496 9.47616L6.39536 5.7756C6.3668 5.67984 6.35246 5.61762 6.35246 5.58414C6.35246 5.50752 6.39056 5.46444 6.46682 5.46444H6.93374C7.02428 5.46444 7.0862 5.47878 7.11956 5.51232C7.15766 5.54106 7.18628 5.60808 7.21484 5.69904L8.01524 8.86818L8.75846 5.69904C8.78228 5.60328 8.81084 5.54106 8.849 5.51232C8.88716 5.48358 8.95382 5.46444 9.03956 5.46444H9.42068C9.51122 5.46444 9.57314 5.47878 9.61124 5.51232C9.64934 5.54106 9.6827 5.60808 9.70178 5.69904L10.4545 8.90646L11.2788 5.69904C11.3073 5.60328 11.3407 5.54106 11.374 5.51232C11.4121 5.48358 11.4741 5.46444 11.5599 5.46444H12.003C12.0792 5.46444 12.1221 5.50272 12.1221 5.58414C12.1221 5.60808 12.1173 5.63202 12.1125 5.66076C12.1077 5.6895 12.0982 5.72778 12.0792 5.78046L10.9309 9.48102C10.9024 9.57678 10.869 9.639 10.8309 9.66774C10.7927 9.69648 10.7308 9.71562 10.6498 9.71562H10.2401C10.1496 9.71562 10.0876 9.70128 10.0495 9.66774C10.0114 9.6342 9.97808 9.57198 9.959 9.47628L9.22052 6.3885L8.48684 9.47148C8.46302 9.56724 8.43446 9.62946 8.3963 9.66294C8.35814 9.69642 8.29148 9.71082 8.20574 9.71082L7.79606 9.71076ZM13.9182 9.84C13.6705 9.84 13.4227 9.81126 13.1845 9.75384C12.9463 9.69642 12.7605 9.63414 12.6366 9.56238C12.5604 9.5193 12.508 9.47142 12.4889 9.42834C12.4698 9.38526 12.4603 9.33738 12.4603 9.2943V9.05016C12.4603 8.9496 12.4984 8.90178 12.5699 8.90178C12.5985 8.90178 12.6271 8.90658 12.6556 8.91612C12.6842 8.92566 12.7271 8.94486 12.7747 8.964C12.9367 9.03582 13.113 9.09324 13.2988 9.13158C13.4894 9.16986 13.6752 9.189 13.8658 9.189C14.166 9.189 14.3994 9.13632 14.5614 9.03102C14.7234 8.92572 14.8091 8.77248 14.8091 8.57622C14.8091 8.44218 14.7662 8.33208 14.6805 8.24112C14.5947 8.15016 14.4327 8.0688 14.1993 7.99218L13.5084 7.77678C13.1606 7.66668 12.9034 7.5039 12.7461 7.2885C12.5889 7.07784 12.5079 6.8433 12.5079 6.59436C12.5079 6.3933 12.5508 6.21618 12.6366 6.063C12.7223 5.90982 12.8367 5.77578 12.9796 5.67042C13.1225 5.56032 13.2845 5.47896 13.4751 5.42148C13.6656 5.364 13.8658 5.34 14.0754 5.34C14.1802 5.34 14.2898 5.3448 14.3946 5.35914C14.5042 5.37348 14.6043 5.39268 14.7043 5.41182C14.7996 5.43576 14.8901 5.4597 14.9758 5.48844C15.0616 5.51718 15.1283 5.54586 15.1759 5.5746C15.2427 5.61288 15.2903 5.65122 15.3189 5.6943C15.3474 5.73258 15.3618 5.78526 15.3618 5.85228V6.07728C15.3618 6.17784 15.3237 6.23046 15.2522 6.23046C15.2141 6.23046 15.1521 6.21132 15.0712 6.17304C14.7996 6.0486 14.4947 5.98632 14.1564 5.98632C13.8849 5.98632 13.6705 6.0294 13.5228 6.12036C13.375 6.21132 13.2988 6.35016 13.2988 6.54642C13.2988 6.68046 13.3465 6.79536 13.4418 6.88632C13.537 6.97728 13.7133 7.06824 13.9659 7.1496L14.6424 7.365C14.9854 7.4751 15.2332 7.62828 15.3809 7.8246C15.5286 8.02092 15.6 8.24586 15.6 8.4948C15.6 8.70066 15.5571 8.88738 15.4761 9.0501C15.3904 9.21288 15.276 9.35646 15.1283 9.47136C14.9806 9.59106 14.8043 9.67722 14.5995 9.73944C14.3851 9.80646 14.1612 9.84 13.9182 9.84H13.9182Z" fill="white"/>
<path fill-rule="evenodd" clip-rule="evenodd" d="M14.7934 12.1427C13.2246 13.3006 10.9455 13.9152 8.98569 13.9152C6.23919 13.9152 3.76449 12.9003 1.89537 11.2136C1.74753 11.0802 1.88109 10.8992 2.05749 11.004C4.07919 12.1761 6.57297 12.8861 9.15261 12.8861C10.893 12.8861 12.805 12.524 14.5645 11.7806C14.8268 11.6615 15.0509 11.9522 14.7934 12.1427H14.7934ZM15.4467 11.3995C15.2464 11.1422 14.1211 11.2756 13.6109 11.3375C13.4583 11.3566 13.4345 11.2232 13.5727 11.1231C14.4691 10.4942 15.9426 10.6752 16.1142 10.8848C16.2859 11.0993 16.0665 12.5716 15.2274 13.2767C15.0986 13.3863 14.9746 13.3292 15.0319 13.1862C15.2226 12.7145 15.647 11.6519 15.4467 11.3995H15.4467Z" fill="#FF9900"/>
</svg>
