<svg width="60" height="60" viewBox="0 0 60 60" fill="none" xmlns="http://www.w3.org/2000/svg">
<path d="M17.0525 25.1104C17.0525 25.8459 17.1314 26.4422 17.2695 26.8795C17.4275 27.3168 17.6249 27.7939 17.9011 28.3107C17.9999 28.4697 18.0393 28.6287 18.0393 28.7678C18.0393 28.9666 17.9209 29.1653 17.6643 29.3641L16.4209 30.199C16.2433 30.3182 16.0656 30.3778 15.9077 30.3778C15.7103 30.3778 15.5129 30.2785 15.3156 30.0996C15.0393 29.8014 14.8025 29.4834 14.6051 29.1653C14.4077 28.8275 14.2103 28.4498 13.9933 27.9926C12.4537 29.8213 10.5195 30.7356 8.19061 30.7356C6.53271 30.7356 5.21034 30.2586 4.24324 29.3045C3.27614 28.3504 2.78271 27.0783 2.78271 25.4881C2.78271 23.7985 3.37482 22.427 4.57877 21.3934C5.78271 20.3598 7.3814 19.843 9.41429 19.843C10.0853 19.843 10.7761 19.9026 11.5064 20.002C12.2367 20.1014 12.9867 20.2604 13.7761 20.4393V18.9882C13.7761 17.4776 13.4603 16.4241 12.8485 15.8079C12.2169 15.1917 11.1511 14.8935 9.63144 14.8935C8.94065 14.8935 8.23008 14.9731 7.49982 15.1519C6.76956 15.3308 6.05903 15.5495 5.36824 15.8278C5.05245 15.9669 4.81561 16.0464 4.67745 16.0862C4.53929 16.1259 4.44061 16.1458 4.36166 16.1458C4.08534 16.1458 3.94719 15.947 3.94719 15.5296V14.5556C3.94719 14.2376 3.98666 13.9991 4.08534 13.8599C4.18403 13.7208 4.36166 13.5817 4.63798 13.4425C5.32876 13.0847 6.15771 12.7866 7.12482 12.548C8.09192 12.2896 9.11826 12.1704 10.2037 12.1704C12.5525 12.1704 14.2695 12.7071 15.3749 13.7804C16.4603 14.8538 17.0129 16.4837 17.0129 18.6702V25.1104H17.0525ZM9.03929 28.1317C9.69065 28.1317 10.3617 28.0125 11.0721 27.7739C11.7827 27.5354 12.4143 27.0981 12.9471 26.5018C13.2629 26.1241 13.4999 25.7068 13.6183 25.2297C13.7367 24.7526 13.8156 24.1762 13.8156 23.5003V22.6656C13.2433 22.5264 12.6314 22.4071 11.9999 22.3276C11.3683 22.2481 10.7564 22.2083 10.1445 22.2083C8.82219 22.2083 7.85508 22.4668 7.20377 23.0034C6.55245 23.5401 6.23666 24.2954 6.23666 25.2893C6.23666 26.2236 6.4735 26.9192 6.96692 27.3963C7.44061 27.8932 8.1314 28.1317 9.03929 28.1317ZM24.8879 30.2785C24.5327 30.2785 24.2959 30.2188 24.1379 30.0797C23.9801 29.9604 23.8419 29.6822 23.7235 29.3045L19.0853 13.9394C18.9669 13.5419 18.9077 13.2835 18.9077 13.1443C18.9077 12.8263 19.0656 12.6474 19.3814 12.6474H21.3156C21.6906 12.6474 21.9471 12.7071 22.0853 12.8462C22.2433 12.9655 22.3617 13.2437 22.4801 13.6214L25.7959 26.7801L28.8749 13.6214C28.9735 13.2239 29.0919 12.9655 29.2499 12.8462C29.4077 12.7269 29.6841 12.6474 30.0393 12.6474H31.6183C31.9933 12.6474 32.2499 12.7071 32.4077 12.8462C32.5657 12.9655 32.7037 13.2437 32.7827 13.6214L35.9011 26.9391L39.3156 13.6214C39.4341 13.2239 39.5721 12.9655 39.7103 12.8462C39.8683 12.7269 40.1249 12.6474 40.4801 12.6474H42.3157C42.6314 12.6474 42.8091 12.8064 42.8091 13.1443C42.8091 13.2437 42.7893 13.3431 42.7695 13.4624C42.7499 13.5817 42.7103 13.7407 42.6314 13.9593L37.8749 29.3244C37.7564 29.7219 37.6183 29.9803 37.4603 30.0996C37.3025 30.2188 37.0459 30.2983 36.7103 30.2983H35.0129C34.6379 30.2983 34.3814 30.2387 34.2235 30.0996C34.0656 29.9604 33.9275 29.7021 33.8485 29.3045L30.7893 16.4837L27.7499 29.2846C27.6511 29.6822 27.5327 29.9406 27.3749 30.0797C27.2169 30.2188 26.9406 30.2785 26.5853 30.2785H24.8879ZM50.2499 30.8151C49.2235 30.8151 48.1971 30.6959 47.2103 30.4573C46.2235 30.2188 45.4537 29.9604 44.9406 29.6623C44.6249 29.4834 44.4077 29.2846 44.3287 29.1058C44.2499 28.9268 44.2103 28.728 44.2103 28.5492V27.5354C44.2103 27.118 44.3683 26.9192 44.6643 26.9192C44.7827 26.9192 44.9011 26.9391 45.0195 26.9788C45.1379 27.0186 45.3157 27.0981 45.5129 27.1776C46.1841 27.4758 46.9143 27.7143 47.6841 27.8734C48.4735 28.0324 49.2433 28.1119 50.0327 28.1119C51.2761 28.1119 52.2433 27.8932 52.9143 27.4559C53.5853 27.0186 53.9407 26.3826 53.9407 25.5676C53.9407 25.011 53.7629 24.5539 53.4077 24.1762C53.0525 23.7985 52.3814 23.4606 51.4143 23.1426L48.5525 22.2481C47.1117 21.791 46.0459 21.1151 45.3945 20.2206C44.7433 19.346 44.4077 18.3721 44.4077 17.3384C44.4077 16.5036 44.5853 15.7681 44.9406 15.1321C45.2959 14.496 45.7695 13.9394 46.3617 13.5021C46.9537 13.045 47.6249 12.7071 48.4143 12.4685C49.2037 12.23 50.0327 12.1306 50.9011 12.1306C51.3353 12.1306 51.7893 12.1505 52.2235 12.2101C52.6775 12.2698 53.0919 12.3493 53.5064 12.4288C53.9011 12.5282 54.2761 12.6275 54.6314 12.7468C54.9867 12.8661 55.2629 12.9853 55.4603 13.1046C55.7367 13.2636 55.9341 13.4226 56.0525 13.6015C56.1709 13.7605 56.2301 13.9792 56.2301 14.2575V15.1917C56.2301 15.6091 56.0722 15.8278 55.7761 15.8278C55.6183 15.8278 55.3617 15.7483 55.0261 15.5892C53.9011 15.0724 52.6379 14.814 51.2367 14.814C50.1117 14.814 49.2235 14.9929 48.6117 15.3706C47.9999 15.7483 47.6841 16.3247 47.6841 17.1397C47.6841 17.6962 47.8814 18.1733 48.2761 18.5509C48.6709 18.9286 49.4011 19.3063 50.4471 19.6442L53.2499 20.5387C54.6709 20.9959 55.6972 21.6319 56.3091 22.4469C56.9209 23.2618 57.2169 24.1961 57.2169 25.2297C57.2169 26.0844 57.0393 26.8596 56.7037 27.5354C56.3485 28.2112 55.8749 28.8076 55.2629 29.2846C54.6511 29.7816 53.9209 30.1393 53.0721 30.3978C52.1841 30.676 51.2564 30.8151 50.2499 30.8151Z" fill="#252F3E"/>
<path fill-rule="evenodd" clip-rule="evenodd" d="M53.9802 40.4755C47.4868 45.3057 38.0526 47.8698 29.9406 47.8698C18.5722 47.8698 8.32884 43.6359 0.592 36.5994C-0.0198424 36.0429 0.532789 35.2875 1.26305 35.7248C9.63144 40.6147 19.9538 43.5764 30.6314 43.5764C37.8354 43.5764 45.7499 42.0657 53.0328 38.9648C54.1184 38.4679 55.046 39.6804 53.9802 40.4755Z" fill="#FF9900"/>
<path fill-rule="evenodd" clip-rule="evenodd" d="M56.6841 37.3746C55.8551 36.3012 51.1972 36.8578 49.0853 37.1162C48.4537 37.1957 48.3551 36.6392 48.9275 36.2217C52.6379 33.598 58.7367 34.3533 59.4472 35.2279C60.1577 36.1224 59.2499 42.2644 55.7761 45.2062C55.2433 45.6634 54.7301 45.4249 54.9669 44.8286C55.7564 42.8607 57.513 38.4282 56.6841 37.3746Z" fill="#FF9900"/>
</svg>
