<svg width="60" height="60" viewBox="0 0 60 60" fill="none" xmlns="http://www.w3.org/2000/svg">
<g clip-path="url(#clip0_428_7736)">
<mask id="mask0_428_7736" style="mask-type:luminance" maskUnits="userSpaceOnUse" x="0" y="7" width="60" height="46">
<path d="M60 7.05884H0V52.9412H60V7.05884Z" fill="white"/>
</mask>
<g mask="url(#mask0_428_7736)">
<path d="M27.6143 50.4909C35.2832 49.1465 41.6171 48.034 41.6899 48.0186L41.8222 47.9908L34.5821 39.4444C30.6 34.7438 27.3419 30.8796 27.3419 30.8574C27.3419 30.8152 34.818 10.3842 34.86 10.3115C34.874 10.2872 39.9618 19.0042 47.1929 31.4421C53.9628 43.0866 59.5443 52.6877 59.5962 52.7776L59.6906 52.9412L36.6807 52.9383L13.671 52.9353L27.6143 50.4909ZM115.854 48.424C112.352 48.2011 110.314 46.2219 109.774 42.5172C109.631 41.5316 109.631 41.506 109.616 35.108L109.601 28.9159H111.152H112.702L112.714 34.9053C112.725 40.3034 112.732 40.9363 112.784 41.3161C112.995 42.8572 113.415 43.8936 114.131 44.6375C114.703 45.2329 115.373 45.5815 116.301 45.7664C116.739 45.8537 117.984 45.8539 118.383 45.7668C119.323 45.5614 120.078 45.1552 120.742 44.4955C121.5 43.7435 122.061 42.6767 122.332 41.4703L122.424 41.0637L122.434 35.0236L122.444 28.9835H124.027H125.609V38.4787V47.974H124.043H122.477V46.4675C122.477 45.4438 122.465 44.9647 122.441 44.9727C122.422 44.979 122.342 45.1012 122.262 45.2441C121.723 46.2209 120.824 47.1143 119.839 47.6525C118.657 48.2976 117.473 48.527 115.854 48.424ZM151.406 48.4086C150.169 48.3164 148.867 47.8946 147.803 47.2414C145.56 45.8646 144.233 43.5953 143.845 40.4723C143.711 39.3917 143.694 37.94 143.806 37.0218C144.057 34.97 144.869 32.9557 146.026 31.5177C146.323 31.1491 146.996 30.4814 147.367 30.1871C148.37 29.3923 149.544 28.8365 150.789 28.5661C151.515 28.4085 152.793 28.3346 153.564 28.4055C155.501 28.5837 157.277 29.4888 158.483 30.9133C159.709 32.3608 160.384 34.3832 160.469 36.8736C160.482 37.2639 160.486 37.9482 160.476 38.3942L160.459 39.2052L153.675 39.2137L146.891 39.2222V39.5227C146.891 40.4374 147.115 41.4791 147.502 42.3654C147.836 43.1298 148.411 43.9644 148.882 44.3683C149.847 45.1965 151.029 45.6922 152.321 45.8115C152.801 45.8557 154.023 45.8091 154.569 45.7258C156.127 45.4881 157.609 44.8815 158.806 43.9912C158.946 43.8864 159.081 43.7885 159.105 43.7737C159.14 43.7519 159.148 44.0256 159.147 45.176L159.146 46.6054L158.825 46.8021C157.472 47.633 155.921 48.1665 154.279 48.3662C153.789 48.4257 151.991 48.4523 151.406 48.4086ZM157.309 36.3534C157.309 34.8214 156.659 33.1194 155.739 32.243C155.081 31.6175 154.287 31.2353 153.343 31.0902C152.896 31.0215 151.954 31.048 151.483 31.1424C150.488 31.3421 149.665 31.7765 148.946 32.4808C148.19 33.2221 147.624 34.1225 147.267 35.1483C147.139 35.5172 146.989 36.1227 146.943 36.4596L146.921 36.6201H152.115H157.309V36.3534ZM65.2804 47.9317C65.2884 47.9084 67.5922 41.9022 70.4 34.5844L75.5052 21.2793L77.1455 21.2792L78.7858 21.2791L78.922 21.6255C79.3378 22.6839 89.1423 47.945 89.1423 47.9582C89.1423 47.9668 88.3571 47.9738 87.3971 47.9736L85.652 47.9733L84.2389 44.2398L82.8259 40.5062L77.1363 40.5061L71.4466 40.506L71.3972 40.6327C71.37 40.7024 70.7663 42.3824 70.0556 44.366L68.7634 47.9727L67.0147 47.9733C65.6306 47.9737 65.2691 47.9652 65.2804 47.9317ZM81.7874 37.6569C81.7874 37.651 80.8365 35.0926 79.6742 31.9716C77.4998 26.1327 77.3782 25.7814 77.2064 24.8441C77.1259 24.4045 77.0851 24.3922 77.0373 24.7933C77.0031 25.08 76.8549 25.7216 76.7406 26.0774C76.684 26.254 75.7047 28.921 74.5647 32.0042C73.4246 35.0873 72.4918 37.6229 72.4918 37.6388C72.4918 37.6547 74.5833 37.6677 77.1396 37.6677C79.6959 37.6677 81.7874 37.6629 81.7874 37.6569ZM90.1976 47.4876V47.0014L95.8659 39.268L101.535 31.5346L96.4023 31.5177L91.2706 31.5008L91.2618 30.2083L91.2521 28.9159H98.6753H106.099V29.3524V29.789L100.429 37.5645C97.3112 41.841 94.7603 45.3472 94.7603 45.356C94.7603 45.3649 97.2812 45.372 100.361 45.372H105.963V46.673V47.9739H98.0806H90.1976V47.4876ZM131.795 47.9514C131.783 47.939 131.772 43.651 131.772 38.4223V28.9159H133.322H134.871V30.8757C134.871 31.9536 134.884 32.8355 134.9 32.8355C134.916 32.8355 134.992 32.6592 135.068 32.4435C135.416 31.4553 136.02 30.5319 136.798 29.798C137.5 29.1369 138.301 28.7415 139.246 28.5903C139.511 28.5478 139.736 28.5396 140.268 28.5533C140.935 28.5706 141.283 28.619 141.689 28.7506L141.817 28.792V30.3879V31.9838L141.451 31.802C140.804 31.4808 140.166 31.3536 139.399 31.3932C138.9 31.419 138.573 31.4826 138.174 31.6312C137.352 31.937 136.687 32.4768 136.221 33.2135C135.548 34.2801 135.067 35.6511 134.926 36.9112C134.9 37.1374 134.885 38.979 134.879 42.6096L134.87 47.9739H133.344C132.505 47.9739 131.808 47.9637 131.795 47.9514ZM0 47.8846C0 47.8726 3.41152 41.9955 7.58116 34.8244L15.1624 21.7859L23.9973 14.428C28.8565 10.3811 32.8453 7.06505 32.8613 7.059C32.8774 7.05296 32.8134 7.21262 32.7192 7.41381C32.6252 7.615 28.3081 16.8043 23.1258 27.8345L13.7034 47.8895L6.85167 47.898C3.08325 47.9027 0 47.8967 0 47.8846Z" fill="#0089D6"/>
</g>
</g>
<defs>
<clipPath id="clip0_428_7736">
<rect width="60" height="45.8824" fill="white" transform="translate(0 7.05884)"/>
</clipPath>
</defs>
</svg>
