<svg width="14" height="14" viewBox="0 0 14 14" fill="none" xmlns="http://www.w3.org/2000/svg">
<circle cx="7" cy="7" r="7" fill="#0F1A43"/>
<path d="M10.5056 5.39156L7.0323 9.07615C6.78088 9.3418 6.43156 9.49211 6.06619 9.49211H6.02092C5.64451 9.48282 5.2896 9.31429 5.04413 9.02816L3.54299 7.27931H3.54311C3.43201 7.17648 3.36987 7.03116 3.37213 6.87966C3.37451 6.72826 3.44092 6.58497 3.55499 6.48545C3.66917 6.38607 3.82007 6.33989 3.97012 6.35858C4.12019 6.37726 4.25516 6.45903 4.34154 6.5834L5.84269 8.33225L5.84257 8.33237C5.892 8.39009 5.96365 8.42413 6.03957 8.42568C6.11478 8.42758 6.18726 8.39759 6.23918 8.34296L9.72559 4.65838C9.85831 4.52936 10.0483 4.47866 10.2275 4.52424C10.4068 4.56995 10.5495 4.70551 10.6045 4.88237C10.6595 5.05924 10.619 5.25205 10.4974 5.39154L10.5056 5.39156Z" fill="white"/>
</svg>
