<svg width="17" height="22" viewBox="0 0 17 22" fill="none" xmlns="http://www.w3.org/2000/svg">
<path d="M16.6362 5.256C16.6362 4.70436 16.4171 4.1755 16.0272 3.7854C15.6371 3.39546 15.1082 3.17636 14.5566 3.17636H11.7144C11.5006 2.12354 10.8108 1.22934 9.84661 0.755376C8.88229 0.281574 7.75302 0.281574 6.78874 0.755376C5.82458 1.22934 5.13477 2.12354 4.92094 3.17636H2.07876C1.42005 3.17512 0.80004 3.4866 0.407918 4.01578C0.0156659 4.54496 -0.101931 5.22891 0.0910203 5.85866C0.283821 6.48842 0.764271 6.98932 1.38555 7.2081V18.2449C1.38663 19.0284 1.69842 19.7795 2.25254 20.3335C2.80666 20.8875 3.55789 21.1991 4.34146 21.2H12.294C13.0776 21.1991 13.8288 20.8875 14.3829 20.3335C14.937 19.7796 15.2488 19.0285 15.2499 18.2449V7.2081C15.6539 7.06512 16.0041 6.801 16.2523 6.45158C16.5005 6.10204 16.6347 5.68457 16.6364 5.25592L16.6362 5.256ZM8.31766 1.78993C8.74626 1.79163 9.16374 1.92579 9.51331 2.17398C9.86271 2.42218 10.1268 2.77233 10.2698 3.17637H6.36556C6.50854 2.77237 6.77266 2.42219 7.12208 2.17398C7.47163 1.92579 7.88909 1.79163 8.31774 1.78993H8.31766ZM13.8634 18.2449C13.8628 18.6608 13.6973 19.0597 13.403 19.3537C13.1089 19.6478 12.71 19.8133 12.2939 19.8136H4.34134C3.92525 19.8132 3.52636 19.6478 3.23219 19.3537C2.93789 19.0597 2.77249 18.6608 2.77186 18.2449V7.33565H13.8633L13.8634 18.2449ZM14.5566 5.94922H2.07872C1.83099 5.94922 1.60215 5.81708 1.47836 5.60261C1.35457 5.38815 1.35457 5.12386 1.47836 4.9094C1.60215 4.69494 1.831 4.56279 2.07872 4.56279H14.5566C14.8043 4.56279 15.0332 4.69493 15.157 4.9094C15.2807 5.12386 15.2807 5.38815 15.157 5.60261C15.0332 5.81707 14.8043 5.94922 14.5566 5.94922Z" fill="white"/>
<path d="M6.23765 17.0408C6.42147 17.0408 6.59787 16.9677 6.72785 16.8378C6.85783 16.7078 6.93086 16.5314 6.93086 16.3476V10.8018C6.93086 10.5541 6.79872 10.3253 6.58426 10.2015C6.36979 10.0777 6.1055 10.0777 5.89104 10.2015C5.67658 10.3253 5.54443 10.5541 5.54443 10.8018V16.3476C5.54443 16.5314 5.61747 16.7078 5.74745 16.8378C5.87742 16.9677 6.05382 17.0408 6.23765 17.0408Z" fill="white"/>
<path d="M10.3973 17.0408C10.5811 17.0408 10.7575 16.9677 10.8875 16.8378C11.0175 16.7078 11.0905 16.5314 11.0905 16.3476V10.8018C11.0905 10.5541 10.9584 10.3253 10.7439 10.2015C10.5295 10.0777 10.2652 10.0777 10.0507 10.2015C9.83625 10.3253 9.7041 10.5541 9.7041 10.8018V16.3476C9.7041 16.5314 9.77714 16.7078 9.90711 16.8378C10.0371 16.9677 10.2135 17.0408 10.3973 17.0408Z" fill="white"/>
</svg>
