<svg width="22" height="22" viewBox="0 0 22 22" fill="none" xmlns="http://www.w3.org/2000/svg">
<path d="M5.30178 21.6667H16.7296C19.4625 21.6667 21.6982 19.4343 21.6982 16.7055L21.6985 13.4807C21.6985 13.0259 21.3259 12.6539 20.8705 12.6539C20.415 12.6539 20.0424 13.0259 20.0424 13.4807V16.7055C20.0424 18.5247 18.5518 20.0131 16.7299 20.0131L5.30207 20.0128C3.48016 20.0128 1.98957 18.5244 1.98957 16.7052L1.98986 5.29429C1.98986 3.47508 3.48045 1.9867 5.30235 1.9867L8.53167 1.98698C8.98714 1.98698 9.3597 1.61495 9.3597 1.16018C9.3597 0.705402 8.98712 0.333374 8.53167 0.333374H5.30206C2.56923 0.333374 0.333496 2.5658 0.333496 5.29457V16.7055C0.333496 19.434 2.56953 21.6667 5.30206 21.6667H5.30178Z" fill="white"/>
<path d="M16.4817 1.40821L8.03501 9.84237C7.95212 9.92514 7.86952 10.0492 7.82793 10.2144L6.66858 14.3488C6.54439 14.8036 6.79277 15.2584 7.24824 15.3824C7.37243 15.4236 7.53822 15.4236 7.70371 15.3824L11.8442 14.2248C11.9684 14.1835 12.0926 14.1008 12.2168 14.018L20.7049 5.58382C21.8643 4.42619 21.8643 2.56578 20.7049 1.40815C19.5456 0.250227 17.5995 0.250227 16.4818 1.40787L16.4817 1.40821ZM8.61469 13.398L9.02886 11.9923L10.064 13.0259L8.61469 13.398ZM19.4629 4.38497L11.6373 12.199L9.81537 10.3798L17.641 2.56576C18.1793 2.11096 19.0073 2.1522 19.4629 2.68977C19.8768 3.18581 19.8768 3.8886 19.4626 4.38465L19.4629 4.38497Z" fill="white"/>
</svg>
