<svg width="12" height="12" viewBox="0 0 12 12" fill="none" xmlns="http://www.w3.org/2000/svg">
<circle cx="6" cy="6" r="6" fill="#22C38F"/>
<path d="M9.00452 4.62176L6.02738 7.77997C5.81188 8.00767 5.51246 8.13651 5.19929 8.13651H5.16049C4.83785 8.12855 4.53364 7.9841 4.32324 7.73884L3.03655 6.23983H3.03665C2.94143 6.15169 2.88816 6.02713 2.8901 5.89727C2.89213 5.7675 2.94906 5.64468 3.04683 5.55938C3.1447 5.4742 3.27404 5.43461 3.40266 5.45063C3.53129 5.46664 3.64698 5.53673 3.72102 5.64334L5.00772 7.14234L5.00762 7.14245C5.04998 7.19192 5.1114 7.2211 5.17647 7.22243C5.24094 7.22406 5.30307 7.19835 5.34757 7.15153L8.33592 3.99331C8.44968 3.88273 8.61252 3.83927 8.76611 3.87834C8.91979 3.91752 9.0421 4.03371 9.08927 4.18531C9.13642 4.33691 9.10169 4.50218 8.99751 4.62174L9.00452 4.62176Z" fill="white"/>
</svg>
