<svg width="21" height="20" viewBox="0 0 21 20" fill="none" xmlns="http://www.w3.org/2000/svg">
<path d="M0.66716 12.3375H2.66783V16.1387C2.66828 16.6694 2.87802 17.1787 3.25134 17.5559C3.61932 17.9227 4.11563 18.132 4.63511 18.1394H10.6371C11.5373 19.1993 12.8196 19.8607 14.205 19.9801H14.255C14.3951 19.9801 14.5417 20 14.6852 20C16.0398 19.9982 17.3431 19.4811 18.3305 18.5535C19.3178 17.626 19.9155 16.3577 20.002 15.0058C20.0886 13.6538 19.6575 12.3196 18.7965 11.2737C18.475 10.8887 18.1 10.5519 17.6827 10.2734C17.5148 10.1593 17.3401 10.0557 17.1592 9.96329V4.29473C17.1595 4.19023 17.1343 4.08722 17.086 3.99462L17.0693 3.96128C17.0397 3.91111 17.005 3.86422 16.9658 3.8212L13.3579 0.196792C13.3218 0.161959 13.2814 0.131742 13.2379 0.106731L13.1879 0.0766618C13.1457 0.0592453 13.1022 0.0448058 13.0578 0.0333445L12.9712 0H6.00201C5.82516 0 5.65546 0.0702635 5.53042 0.195303C5.40538 0.320343 5.33512 0.490046 5.33512 0.66689V2.00067H2.00067C1.46998 2.00067 0.961197 2.21145 0.58591 2.58658C0.210783 2.96185 0 3.47065 0 4.00134V11.6706C0 11.8474 0.0702635 12.0171 0.195303 12.1422C0.320343 12.2672 0.490046 12.3375 0.66689 12.3375L0.66716 12.3375ZM13.5549 3.60464V2.27086L14.8887 3.60464H13.5549ZM6.66917 1.33394H12.2211V4.26825C12.2211 4.44509 12.2914 4.6148 12.4164 4.73984C12.5415 4.86488 12.7112 4.93514 12.888 4.93514H15.8256V9.46008C15.4466 9.37761 15.0599 9.33623 14.672 9.33668C14.0711 9.33772 13.4747 9.44043 12.908 9.64005L13.0847 9.34322L13.0848 9.34337C13.1762 9.14092 13.1609 8.90631 13.044 8.71741C12.927 8.52866 12.7237 8.41046 12.5018 8.40228C12.2798 8.39409 12.0684 8.4968 11.9377 8.67647L10.914 10.397C10.8238 10.5491 10.7978 10.7309 10.8415 10.9022C10.8853 11.0735 10.9955 11.2205 11.1474 11.3107L12.8679 12.331H12.8681C13.0201 12.4212 13.2018 12.4472 13.3732 12.4034C13.5445 12.3597 13.6914 12.2497 13.7816 12.0975C13.8719 11.9454 13.8979 11.7638 13.8541 11.5925C13.8104 11.4211 13.7004 11.2742 13.5482 11.184L13.1881 10.9705C14.4232 10.4771 15.8228 10.6295 16.9227 11.3774C17.2349 11.5892 17.5146 11.8452 17.7531 12.1376C18.395 12.9219 18.7153 13.9206 18.6494 14.932C18.5834 15.9433 18.1362 16.892 17.398 17.5864C16.6597 18.2808 15.6854 18.6692 14.672 18.6731C14.5754 18.6781 14.4785 18.6781 14.3819 18.6731H14.3385C13.2753 18.5859 12.292 18.0738 11.611 17.2527C11.5661 17.1345 11.4886 17.0316 11.3876 16.9559L11.3676 16.9325C10.9109 16.2672 10.6678 15.4786 10.6707 14.6718C10.6707 14.4334 10.5435 14.2133 10.3372 14.0942C10.1309 13.9751 9.87665 13.9751 9.67033 14.0942C9.46402 14.2133 9.33689 14.4335 9.33689 14.6718C9.33793 15.4076 9.49126 16.1353 9.78702 16.8091H6.54262V16.7691V16.7692C6.56986 16.6861 6.59219 16.6014 6.60931 16.5157V16.4291C6.62122 16.3461 6.62792 16.2626 6.62926 16.179V16.1424L6.66917 1.33394ZM5.33539 3.3346V16.1389C5.33643 16.316 5.26691 16.4862 5.14232 16.612C5.01772 16.7379 4.84817 16.8089 4.67119 16.8096C4.49405 16.8104 4.3239 16.7406 4.19842 16.6157C4.07144 16.4896 4.00059 16.3178 4.00163 16.1389V4.00148C4.00103 3.89758 3.9921 3.79382 3.97498 3.69141V3.64467C3.95712 3.54865 3.9327 3.45398 3.90159 3.36124V3.33459L5.33539 3.3346ZM1.33405 4.00149C1.33405 3.76317 1.46117 3.54302 1.66749 3.42393C1.87381 3.30484 2.12807 3.30484 2.33438 3.42393C2.5407 3.54302 2.66783 3.76318 2.66783 4.00149V11.0038H1.33405V4.00149Z" fill="#0F1A43"/>
<path d="M12.8881 15.6719H15.0054C15.1823 15.6719 15.352 15.6016 15.477 15.4766C15.6021 15.3515 15.6723 15.1818 15.6723 15.005V12.3374C15.6723 12.0991 15.5452 11.8789 15.3389 11.7598C15.1326 11.6408 14.8783 11.6408 14.672 11.7598C14.4657 11.8789 14.3385 12.0991 14.3385 12.3374V14.3381H12.8881C12.6497 14.3381 12.4296 14.4652 12.3105 14.6715C12.1914 14.8778 12.1914 15.1321 12.3105 15.3384C12.4296 15.5447 12.6498 15.6719 12.8881 15.6719Z" fill="#0F1A43"/>
</svg>
