<svg width="25" height="16" viewBox="0 0 25 16" fill="none" xmlns="http://www.w3.org/2000/svg">
<path d="M21.0315 2.65044L23.9711 11.7633C24.0826 12.1089 23.9055 12.4813 23.5671 12.6129L18.5211 14.5753L21.0315 2.65044ZM3.4331 0.660034H19.2041C19.6396 0.660034 19.9648 1.06075 19.8751 1.48702L17.1323 14.5152C17.0655 14.8325 16.7856 15.0596 16.4613 15.0596H0.69032C0.2548 15.0596 -0.0703911 14.6589 0.0193665 14.2327L2.76215 1.20444C2.82898 0.887174 3.10887 0.660034 3.4331 0.660034ZM9.94687 11.6312C12.0297 11.6312 13.7182 9.94264 13.7182 7.85984C13.7182 5.77704 12.0297 4.08851 9.94687 4.08851C7.86407 4.08851 6.17554 5.77704 6.17554 7.85984C6.17554 9.94264 7.86407 11.6312 9.94687 11.6312ZM8.80515 9.9713L12.0583 6.71812C12.2423 7.05762 12.3468 7.44654 12.3468 7.85984C12.3468 9.18529 11.2723 10.2598 9.94687 10.2598C9.53357 10.2598 9.14468 10.1553 8.80515 9.9713ZM7.83541 9.00156C7.65139 8.66206 7.54693 8.27314 7.54693 7.85984C7.54693 6.53439 8.62142 5.45991 9.94687 5.45991C10.3602 5.45991 10.7491 5.56437 11.0886 5.74838L7.83541 9.00156Z" fill="#F76B8A"/>
</svg>
