<svg width="10" height="10" viewBox="0 0 16 12" fill="none" xmlns="http://www.w3.org/2000/svg">
<path d="M15.5113 2.55342L8.06844 10.449C7.52969 11.0182 6.78115 11.3403 5.99821 11.3403H5.9012C5.09461 11.3204 4.33409 10.9593 3.80809 10.3461L0.591351 6.5986H0.591605C0.35355 6.37825 0.220389 6.06685 0.225225 5.74219C0.230317 5.41778 0.372642 5.11071 0.617065 4.89747C0.861742 4.68451 1.18509 4.58556 1.50664 4.62559C1.8282 4.66564 2.11744 4.84085 2.30254 5.10736L5.51928 8.85488L5.51903 8.85514C5.62495 8.97883 5.77848 9.05177 5.94117 9.05509C6.10234 9.05917 6.25765 8.9949 6.36891 8.87784L13.8398 0.982308C14.1242 0.705843 14.5313 0.5972 14.9153 0.69488C15.2995 0.792815 15.6052 1.0833 15.7232 1.4623C15.841 1.84129 15.7542 2.25446 15.4938 2.55336L15.5113 2.55342Z" fill="white"/>
</svg>
