<svg width="25" height="24" viewBox="0 0 25 24" fill="none" xmlns="http://www.w3.org/2000/svg">
<path d="M18.6238 13.4652C18.9775 13.4146 19.2302 13.1115 19.2302 12.7578V11.2419C19.2302 10.8883 18.9775 10.5852 18.6238 10.5346L17.3103 10.3325C17.1334 9.92821 17.1082 9.82724 16.9314 9.42299L17.7399 8.36195C17.942 8.08405 17.9168 7.6798 17.6641 7.42726L16.5779 6.34105C16.3252 6.08835 15.9211 6.06315 15.6432 6.26527L14.5822 7.07378C14.178 6.89685 14.077 6.87165 13.6727 6.69491L13.4706 5.38119C13.42 5.02752 13.1169 4.77483 12.7632 4.77483L11.2471 4.77466C10.8934 4.77466 10.5903 5.02736 10.5397 5.38101L10.3376 6.69455C9.93333 6.87148 9.83237 6.89667 9.42812 7.07342L8.36707 6.26492C8.08917 6.06279 7.68493 6.08799 7.43239 6.34069L6.34618 7.42691C6.09347 7.67961 6.06827 8.0837 6.2704 8.36159L7.0789 9.42263C6.90198 9.82688 6.87678 9.92784 6.70003 10.3321L5.38632 10.5342C5.03264 10.5848 4.77996 10.8879 4.77996 11.2416L4.77979 12.7578C4.77979 13.1114 5.03249 13.4146 5.38614 13.4651L6.69986 13.6673C6.87678 14.0715 6.90198 14.1725 7.07873 14.5767L6.27022 15.6378C6.0681 15.9157 6.0933 16.3199 6.346 16.5724L7.43221 17.6587C7.68492 17.9114 8.089 17.9366 8.3669 17.7344L9.42794 16.9259C9.83219 17.1029 9.93315 17.1281 10.3374 17.3048L10.5395 18.6185C10.5901 18.9722 10.8932 19.2249 11.2469 19.2249L12.7629 19.225C13.1166 19.225 13.4197 18.9723 13.4703 18.6187L13.6724 17.305C14.0766 17.128 14.1776 17.1028 14.5818 16.9261L15.6429 17.7346C15.9208 17.9367 16.325 17.9115 16.5776 17.6588L17.6638 16.5726C17.9165 16.3199 17.9417 15.9158 17.7396 15.6379L16.9311 14.5769C17.108 14.1726 17.1332 14.0717 17.3099 13.6674L18.6238 13.4652ZM12.0049 14.9304C10.3881 14.9304 9.07439 13.6167 9.07439 11.9999C9.07439 10.383 10.3881 9.06933 12.0049 9.06933C13.6218 9.06933 14.9355 10.383 14.9355 11.9999C14.9355 13.6167 13.6218 14.9304 12.0049 14.9304Z" fill="#7AC38F"/>
<path d="M12.0045 10.3831C11.1202 10.3831 10.3877 11.0904 10.3877 11.9999C10.3877 12.8842 11.0951 13.6167 12.0045 13.6167C12.8888 13.6167 13.6213 12.9093 13.6213 11.9999C13.6213 11.1156 12.8888 10.3831 12.0045 10.3831Z" fill="#7AC38F"/>
<path d="M1.64699 13.9705C0.990196 10.5347 2.07643 7.02316 4.55213 4.5474C6.54799 2.55154 9.20051 1.46532 12.0047 1.46532C14.5058 1.46532 16.8804 2.34961 18.7752 3.94104L17.992 4.72415C17.7899 4.92627 17.7393 5.20419 17.8151 5.45668C17.8909 5.70938 18.1182 5.91132 18.3709 5.96189L21.6046 6.5429H21.7309C21.933 6.5429 22.1098 6.46712 22.2361 6.34077C22.413 6.16384 22.4888 5.93652 22.4382 5.68398L21.8572 2.45033C21.8067 2.17243 21.6045 1.97029 21.352 1.89454C21.0993 1.81877 20.8214 1.89454 20.6195 2.07147L19.811 2.90514C17.6384 1.03578 14.91 0 12.0048 0C8.79632 0 5.79008 1.23793 3.51641 3.51154C0.712232 6.31573 -0.525742 10.3325 0.207018 14.223C0.282793 14.5767 0.58589 14.8294 0.91438 14.8294C0.964955 14.8294 1.01535 14.8294 1.04073 14.8042C1.47018 14.7534 1.72269 14.3492 1.64695 13.9703L1.64699 13.9705Z" fill="#7AC38F"/>
<path d="M23.8025 9.77678C23.7268 9.37253 23.3479 9.11999 22.9436 9.19578C22.5394 9.27155 22.2868 9.65042 22.3626 10.0547C23.0194 13.4904 21.9332 17.002 19.4575 19.4777C17.4616 21.4484 14.8091 22.5346 12.0049 22.5346C9.50386 22.5346 7.12919 21.6503 5.23447 20.0589L6.01758 19.2758C6.21971 19.0737 6.27028 18.7958 6.19451 18.5433C6.11873 18.2906 5.89141 18.0886 5.63872 18.0381L2.40507 17.4571C2.17774 17.4065 1.92503 17.4823 1.74828 17.6592C1.57135 17.8361 1.49558 18.0634 1.54615 18.316L2.12716 21.5496C2.17773 21.8275 2.37986 22.0297 2.63237 22.1054C2.70814 22.1306 2.78392 22.1306 2.85969 22.1306C3.06182 22.1306 3.23857 22.0548 3.36491 21.9285L4.19858 21.0948C6.37119 22.9643 9.09959 24 12.0048 24C15.2133 24 18.2195 22.762 20.4932 20.4884C23.2973 17.6842 24.5353 13.6674 23.8026 9.77694L23.8025 9.77678Z" fill="#7AC38F"/>
</svg>
