<svg width="24" height="19" viewBox="0 0 24 19" fill="none" xmlns="http://www.w3.org/2000/svg">
<path d="M24 4.20708V6.69182L21.8824 6.69162V4.20708C21.8824 3.04939 20.9224 2.08945 19.7647 2.08945C18.607 2.08945 17.6471 3.04939 17.6471 4.20708V6.43756H15.5295V4.20708C15.5295 1.8917 17.4212 0 19.7365 0C22.1082 0 24 1.89175 24 4.20708ZM14.513 11.4635C14.513 10.8989 14.0612 10.4189 13.4684 10.4189C12.8753 10.4189 12.4237 10.8707 12.4237 11.4635C12.4237 11.8023 12.5931 12.1412 12.9037 12.3387L13.0731 12.4516L12.4237 14.5127C12.3955 14.5409 12.4237 14.5692 12.4237 14.5692C12.4237 14.5974 12.4519 14.5974 12.4802 14.5974H14.4001C14.4283 14.5974 14.4566 14.5692 14.4566 14.5692C14.4566 14.5411 14.4848 14.5411 14.4566 14.5127L14.4285 14.4845L13.8073 12.4798L13.9767 12.3669C14.3436 12.1412 14.513 11.8025 14.513 11.4635ZM19.3976 8.41411V16.6305C19.3976 17.4211 18.7765 18.0423 17.9859 18.0423H8.97887C8.18828 18.0423 7.56711 17.4211 7.56711 16.6305V8.41411C7.56711 7.62353 8.18828 7.00236 8.97887 7.00236H17.9859C18.7483 7.00236 19.3976 7.62353 19.3976 8.41411ZM14.513 12.6777C14.8518 12.3671 15.0777 11.9437 15.0777 11.4637C15.0777 10.5885 14.3718 9.8542 13.4682 9.8542C12.5645 9.8542 11.8586 10.5601 11.8586 11.4637C11.8586 11.9437 12.0564 12.3673 12.4233 12.6777L11.9152 14.2872C11.8305 14.485 11.8586 14.7107 11.9717 14.8803C12.0845 15.078 12.2823 15.1909 12.5082 15.1909H14.4281C14.654 15.1909 14.8515 15.078 14.9646 14.8803C15.0775 14.7109 15.1058 14.485 15.0211 14.2872L14.513 12.6777ZM5.25188 4.82835C5.67533 4.82835 6.01428 4.54592 6.15551 4.17899H11.3225V6.43785H11.8872V3.61434L6.15546 3.61415C6.0426 3.21886 5.67549 2.96479 5.25183 2.96479C4.7437 2.96479 4.32007 3.38823 4.32007 3.89655C4.32027 4.40468 4.74372 4.82831 5.25203 4.82831L5.25188 4.82835ZM7.00241 15.7271H4.00954C3.89668 15.3318 3.52957 15.0778 3.10591 15.0778C2.59778 15.0778 2.17415 15.5012 2.17415 16.0095C2.17415 16.5176 2.5976 16.9413 3.10591 16.9413C3.52936 16.9413 3.86831 16.6588 4.00954 16.2919H7.00241V15.7271ZM7.00241 9.54362H1.83538C1.72253 9.14833 1.35541 8.89426 0.931759 8.89426C0.423628 8.89426 0 9.31771 0 9.82602C0 10.3341 0.423446 10.7578 0.931759 10.7578C1.35521 10.7578 1.69416 10.4753 1.83538 10.1084H7.00241V9.54362Z" fill="#3585FE"/>
</svg>
