<svg width="15" height="15" viewBox="0 0 15 15" fill="none" xmlns="http://www.w3.org/2000/svg">
<path d="M13.4522 9.55322H9.14239C8.75163 9.55322 8.37683 9.70845 8.10042 9.98483C7.82403 10.2612 7.66881 10.636 7.66881 11.0269V13.1261C7.66881 13.517 7.82403 13.8918 8.10042 14.1682C8.37681 14.4445 8.75163 14.5998 9.14239 14.5998H13.4522C13.8431 14.5998 14.2179 14.4445 14.4943 14.1682C14.7706 13.8918 14.9259 13.517 14.9259 13.1261V11.0269C14.9259 10.636 14.7706 10.2612 14.4943 9.98483C14.2179 9.70844 13.8431 9.55322 13.4522 9.55322ZM14.189 13.1262C14.189 13.3217 14.1114 13.509 13.9733 13.6473C13.835 13.7854 13.6477 13.863 13.4522 13.863H9.14237C8.94706 13.863 8.75957 13.7854 8.62145 13.6473C8.48319 13.509 8.40558 13.3217 8.40558 13.1262V11.027C8.40558 10.8316 8.48319 10.6441 8.62145 10.506C8.75958 10.3677 8.94705 10.2901 9.14237 10.2901H13.4522C13.6477 10.2901 13.835 10.3677 13.9733 10.506C14.1114 10.6441 14.189 10.8316 14.189 11.027V13.1262ZM5.23576 6.60587H2.39962C2.00874 6.60587 1.63394 6.76122 1.35752 7.03748C1.08126 7.31387 0.925913 7.68869 0.925913 8.07958V13.1263C0.925913 13.5172 1.08126 13.892 1.35752 14.1684C1.63391 14.4446 2.00874 14.6 2.39962 14.6H5.23576C5.62652 14.6 6.00145 14.4446 6.27773 14.1684C6.55412 13.892 6.70947 13.5172 6.70947 13.1263V8.07958C6.70947 7.68869 6.55412 7.31389 6.27773 7.03748C6.00147 6.76122 5.62652 6.60587 5.23576 6.60587ZM5.97253 13.1262C5.97253 13.3217 5.89492 13.509 5.75679 13.6473C5.61853 13.7854 5.43119 13.863 5.23574 13.863H2.3996C2.20416 13.863 2.01681 13.7854 1.87855 13.6473C1.74042 13.509 1.66281 13.3217 1.66281 13.1262V8.07955C1.66281 7.88411 1.74042 7.69675 1.87855 7.5585C2.01681 7.42036 2.20416 7.34275 2.3996 7.34275H5.23574C5.43118 7.34275 5.61854 7.42036 5.75679 7.5585C5.89492 7.69675 5.97253 7.8841 5.97253 8.07955V13.1262ZM13.4521 0.599976H9.14226C8.7515 0.599976 8.3767 0.755327 8.10029 1.03159C7.8239 1.30798 7.66868 1.6828 7.66868 2.07369V7.12037C7.66868 7.51126 7.8239 7.88606 8.10029 8.16247C8.37668 8.43874 8.7515 8.59408 9.14226 8.59408H13.4521C13.843 8.59408 14.2178 8.43873 14.4942 8.16247C14.7705 7.88608 14.9258 7.51126 14.9258 7.12037V2.07369C14.9258 1.6828 14.7705 1.308 14.4942 1.03159C14.2178 0.755324 13.843 0.599976 13.4521 0.599976ZM14.1889 7.12034C14.1889 7.31578 14.1113 7.50313 13.9731 7.64139C13.8349 7.77952 13.6475 7.85713 13.4521 7.85713H9.14224C8.94693 7.85713 8.75944 7.77952 8.62132 7.64139C8.48306 7.50313 8.40545 7.31579 8.40545 7.12034V2.07365C8.40545 1.87821 8.48306 1.69086 8.62132 1.5526C8.75945 1.41447 8.94692 1.33686 9.14224 1.33686H13.4521C13.6475 1.33686 13.8349 1.41447 13.9731 1.5526C14.1113 1.69086 14.1889 1.87821 14.1889 2.07365V7.12034ZM5.23563 0.599976H2.39949C2.00861 0.599976 1.6338 0.755327 1.35739 1.03159C1.08113 1.30798 0.925781 1.6828 0.925781 2.07369V4.17289C0.925781 4.56377 1.08113 4.93857 1.35739 5.21499C1.63378 5.49138 2.00861 5.6466 2.39949 5.6466H5.23563C5.62638 5.6466 6.00132 5.49137 6.2776 5.21499C6.55399 4.9386 6.70934 4.56377 6.70934 4.17289V2.07369C6.70934 1.6828 6.55399 1.308 6.2776 1.03159C6.00134 0.755324 5.62638 0.599976 5.23563 0.599976ZM5.9724 4.17299C5.9724 4.36843 5.89479 4.55591 5.75666 4.69404C5.6184 4.83229 5.43106 4.90991 5.23561 4.90991H2.39947C2.20403 4.90991 2.01668 4.83229 1.87842 4.69404C1.74029 4.5559 1.66268 4.36843 1.66268 4.17299V2.07378C1.66268 1.87834 1.74029 1.69099 1.87842 1.55273C2.01668 1.4146 2.20403 1.33699 2.39947 1.33699H5.23561C5.43105 1.33699 5.6184 1.4146 5.75666 1.55273C5.89479 1.69099 5.9724 1.87834 5.9724 2.07378V4.17299Z" fill="white"/>
</svg>
