<svg width="15" height="14" viewBox="0 0 15 14" fill="none" xmlns="http://www.w3.org/2000/svg">
<path d="M7.1875 11.0332C7.56504 11.0332 7.87109 10.7271 7.87109 10.3496C7.87109 9.97207 7.56504 9.66602 7.1875 9.66602C6.80996 9.66602 6.50391 9.97207 6.50391 10.3496C6.50391 10.7271 6.80996 11.0332 7.1875 11.0332Z" fill="white"/>
<path d="M7.1875 0C3.3188 0 0.1875 3.13078 0.1875 7C0.1875 10.8687 3.31828 14 7.1875 14C11.0562 14 14.1875 10.8692 14.1875 7C14.1875 3.1313 11.0567 0 7.1875 0ZM7.1875 12.9062C3.92329 12.9062 1.28125 10.2647 1.28125 7C1.28125 3.73579 3.92285 1.09375 7.1875 1.09375C10.4517 1.09375 13.0938 3.73535 13.0938 7C13.0938 10.2642 10.4522 12.9062 7.1875 12.9062Z" fill="white"/>
<path d="M7.1875 3.51367C5.98131 3.51367 5 4.49498 5 5.70117C5 6.00321 5.24484 6.24805 5.54688 6.24805C5.84891 6.24805 6.09375 6.00321 6.09375 5.70117C6.09375 5.09808 6.58441 4.60742 7.1875 4.60742C7.79059 4.60742 8.28125 5.09808 8.28125 5.70117C8.28125 6.30427 7.79059 6.79492 7.1875 6.79492C6.88546 6.79492 6.64062 7.03976 6.64062 7.3418V8.70898C6.64062 9.01102 6.88546 9.25586 7.1875 9.25586C7.48954 9.25586 7.73438 9.01102 7.73438 8.70898V7.81946C8.6768 7.57602 9.375 6.71861 9.375 5.70117C9.375 4.49498 8.39369 3.51367 7.1875 3.51367Z" fill="white"/>
</svg>
