<svg width="13" height="14" viewBox="0 0 13 14" fill="none" xmlns="http://www.w3.org/2000/svg">
<path d="M6.25767 13.9682C6.3673 14.0094 6.49169 14.0117 6.60829 13.9684C10.3859 12.5589 12.4335 11.0312 12.4335 6.99996V3C12.4335 2.80399 12.3189 2.62601 12.1406 2.54497L6.64062 0.0449907C6.50878 -0.0149969 6.35846 -0.0149969 6.22663 0.0449907L0.726677 2.54497C0.548339 2.626 0.433594 2.80399 0.433594 3V6.99996C0.433594 11.0217 2.48039 12.5514 6.25795 13.9684L6.25767 13.9682ZM1.4336 3.3219L6.43356 1.04921L11.4335 3.3219V6.99985C11.4335 10.096 10.2601 11.5096 6.43415 12.9653C2.56067 11.4859 1.4336 10.1264 1.4336 6.99985V3.3219Z" fill="white"/>
<path d="M4.43359 10.4998H8.43355C8.98483 10.4998 9.4336 10.0513 9.4336 9.49977V6.49979C9.4336 5.94828 8.98498 5.49974 8.43355 5.49974V4.99971C8.43355 3.8969 7.53651 2.99976 6.4336 2.99976C5.33057 2.99976 4.43365 3.89693 4.43365 4.99971V5.49974C3.88237 5.49974 3.43359 5.94825 3.43359 6.49979V9.49977C3.43359 10.0513 3.88222 10.4998 4.43365 10.4998H4.43359ZM5.43352 4.99986C5.43352 4.44835 5.88215 3.99981 6.43357 3.99981C6.98484 3.99981 7.43362 4.44832 7.43362 4.99986V5.49989H5.43355L5.43352 4.99986ZM4.43359 6.49979H8.43355L8.43402 9.49977H4.43375L4.43359 6.49979Z" fill="white"/>
<path d="M6.93352 7.99983C6.93352 8.27594 6.70973 8.49986 6.4335 8.49986C6.15739 8.49986 5.93347 8.27607 5.93347 7.99983C5.93347 7.72373 6.15726 7.49981 6.4335 7.49981C6.7096 7.49981 6.93352 7.7236 6.93352 7.99983Z" fill="white"/>
</svg>
