<svg width="14" height="14" viewBox="0 0 14 14" fill="none" xmlns="http://www.w3.org/2000/svg">
<path d="M3.82007 4.15737C3.82007 4.48218 3.90669 4.78678 4.0564 5.05114C4.05874 5.05563 4.06001 5.06042 4.06255 5.06481C4.06548 5.06989 4.06988 5.0735 4.0731 5.07839C4.38991 5.6154 4.97302 5.97773 5.64061 5.97773C6.64426 5.97763 7.46088 5.16101 7.46088 4.15739C7.46088 3.15357 6.64426 2.33695 5.64054 2.33695C4.63681 2.33685 3.8201 3.15357 3.8201 4.15739L3.82007 4.15737ZM5.36053 2.92922V3.99516L4.43571 4.527C4.39977 4.41001 4.38014 4.28579 4.38014 4.15707C4.38014 3.55853 4.79997 3.05704 5.36053 2.92922ZM6.90089 4.15737C6.90089 4.85231 6.33545 5.41765 5.64061 5.41765C5.27548 5.41765 4.94704 5.26061 4.71656 5.01169L5.78016 4.40005C5.78309 4.39839 5.78524 4.39614 5.78798 4.39448C5.79637 4.38921 5.80419 4.38325 5.8119 4.37729C5.81893 4.37183 5.82587 4.36655 5.83231 4.3605C5.83876 4.35444 5.84452 4.3478 5.85038 4.34106C5.85653 4.33403 5.86268 4.3272 5.86806 4.31977C5.87323 4.31245 5.87743 4.30493 5.88192 4.29721C5.88642 4.2894 5.89101 4.28169 5.89462 4.27358C5.89843 4.26528 5.90116 4.25669 5.90429 4.248C5.90722 4.2395 5.91015 4.2311 5.9123 4.22241C5.91425 4.21401 5.91542 4.20532 5.91659 4.19663C5.91796 4.18667 5.91923 4.1769 5.91952 4.16694C5.91962 4.16372 5.9205 4.16079 5.9205 4.15757V2.92961C6.48096 3.05706 6.90089 3.55863 6.90089 4.15737Z" fill="white"/>
<path d="M8.04216 5.97691H8.87031C9.0249 5.97691 9.15029 5.85142 9.15029 5.69692L9.15019 3.78233C9.15019 3.62774 9.0247 3.50235 8.87021 3.50235H8.04207C7.88747 3.50235 7.76208 3.62784 7.76208 3.78233V5.69692C7.76208 5.85162 7.88757 5.97691 8.04216 5.97691ZM8.32214 4.06241H8.59023V5.41694H8.32214V4.06241Z" fill="white"/>
<path d="M9.59926 5.98065H10.4274C10.582 5.98065 10.7074 5.85516 10.7074 5.70067V2.81836C10.7074 2.66376 10.5819 2.53838 10.4274 2.53838H9.59926C9.44466 2.53838 9.31927 2.66387 9.31927 2.81836V5.70042C9.31918 5.85502 9.44467 5.9805 9.59926 5.9805V5.98065ZM9.87924 3.09859H10.1473V5.42072H9.87924V3.09859Z" fill="white"/>
<path d="M8.87864 6.77592H5.64882C5.49422 6.77592 5.36884 6.90142 5.36884 7.05591V7.95025C5.36884 8.10484 5.49433 8.23023 5.64882 8.23023H8.87864C9.03323 8.23023 9.15862 8.10474 9.15862 7.95025V7.05591C9.15862 6.90122 9.03323 6.77592 8.87864 6.77592ZM8.59866 7.67019H5.92885V7.33571H8.59866V7.67019Z" fill="white"/>
<path d="M10.0712 9.02848H4.45607C4.30147 9.02848 4.17609 9.15397 4.17609 9.30846C4.17609 9.46305 4.30158 9.58844 4.45607 9.58844H10.0709C10.2255 9.58844 10.3509 9.46295 10.3509 9.30846C10.3509 9.15387 10.2256 9.02848 10.0711 9.02848H10.0712Z" fill="white"/>
<path d="M9.16023 10.0885H5.36714C5.21255 10.0885 5.08716 10.214 5.08716 10.3685C5.08716 10.5231 5.21265 10.6485 5.36714 10.6485H9.15998C9.31457 10.6485 9.43996 10.523 9.43996 10.3685C9.43996 10.2139 9.31466 10.0885 9.16008 10.0885H9.16023Z" fill="white"/>
<path d="M8.14165 11.1485H6.38594C6.23135 11.1485 6.10596 11.274 6.10596 11.4285C6.10596 11.5831 6.23145 11.7085 6.38594 11.7085H8.14173C8.29632 11.7085 8.42171 11.583 8.42171 11.4285C8.42171 11.274 8.29632 11.1485 8.14163 11.1485H8.14165Z" fill="white"/>
<path d="M13.5223 9.65474L11.6681 6.10116V1.75556C11.6681 1.45505 11.4235 1.21052 11.1229 1.21052H9.11566L8.64845 0.315478C8.50958 0.0493464 8.17929 -0.0541559 7.91319 0.0845147L5.75534 1.21052H3.40441C3.1039 1.21052 2.85937 1.45505 2.85937 1.75555V2.72187L1.07045 3.6554C0.941349 3.72278 0.846132 3.83626 0.802674 3.97533C0.75902 4.1142 0.772106 4.26176 0.839492 4.39086L2.85946 8.26145V12.2898C2.85946 12.5903 3.104 12.8348 3.4045 12.8348H5.24624L5.71315 13.73C5.78054 13.8591 5.89421 13.9541 6.03309 13.9977C6.08699 14.0146 6.14217 14.0229 6.19705 14.0229C6.28368 14.0229 6.36971 14.0021 6.44861 13.9609L8.60638 12.8349H11.1232C11.4237 12.8349 11.6683 12.5905 11.6683 12.2899V11.237L13.2918 10.3899C13.4207 10.3225 13.5158 10.2088 13.5594 10.0699C13.6028 9.93115 13.5895 9.78349 13.5223 9.65469L13.5223 9.65474ZM8.15894 0.587784L8.48385 1.21035H6.96584L8.15894 0.587784ZM1.34279 4.14487L2.85932 3.35345V7.05078L1.34279 4.14487ZM6.2024 13.4576L5.87749 12.835H7.3956L6.2024 13.4576ZM11.108 12.275H3.41933V1.77054H11.108V12.275ZM11.668 10.6056V7.31199L13.0187 9.90055L11.668 10.6056Z" fill="white"/>
</svg>
