<svg width="13" height="14" viewBox="0 0 13 14" fill="none" xmlns="http://www.w3.org/2000/svg">
<path d="M6.15623 0L0.0941162 3.50005V10.4999L6.15623 14L12.2183 10.4999V3.50005L6.15623 0ZM6.56638 1.18409L10.9879 3.73685L8.52693 5.15769L6.56638 4.02577V1.18409ZM5.74607 1.18409V4.02577L3.78552 5.15769L1.32459 3.73685L5.74607 1.18409ZM0.914429 4.44727L3.37537 5.86808V8.13192L0.914429 9.55276V4.44727ZM5.74607 12.8159L1.32456 10.2631L3.78552 8.84231L5.74607 9.97423V12.8159ZM5.74607 9.02702L4.19568 8.13189V6.34167L5.74607 7.2368V9.02702ZM4.60584 5.63128L6.15623 4.73616L7.70662 5.63128L6.15623 6.52641L4.60584 5.63128ZM8.11677 6.34167V8.13189L6.56638 9.02705V7.2368L8.11677 6.34167ZM6.56638 12.8159V9.97423L8.52693 8.84231L10.9879 10.2631L6.56638 12.8159ZM11.398 9.55276L8.93709 8.13192V5.86808L11.398 4.44727V9.55276Z" fill="white"/>
</svg>
