<svg width="115" height="132" viewBox="0 0 115 132" fill="none" xmlns="http://www.w3.org/2000/svg">
<path d="M115 34.2759V33.7952C115 33.5556 114.76 33.3144 114.76 33.0749C114.52 32.8354 114.52 32.5942 114.278 32.3547L114.038 32.1152H113.798L58.7022 0.179634H58.4622H58.2222C57.7405 -0.0598781 57.0189 -0.0598781 56.5372 0.179634H56.2972H56.0572L1.20163 32.1152H0.961641L0.721657 32.3547C0.239994 32.8354 0 33.3144 0 33.7952V34.0347V34.2742V97.9052V98.1447V98.3842C0 98.6237 0.239984 98.8649 0.239984 99.1044C0.239984 99.344 0.479977 99.3439 0.72165 99.5851L0.961641 99.8247L1.20162 100.064L56.2978 131.76H56.5378H56.7778C57.0178 131.76 57.2595 132 57.4995 132C57.7394 132 57.9811 132 58.2211 131.76H58.4611H58.7011L113.797 100.064L114.277 99.5851C114.517 99.3456 114.759 98.8649 114.999 98.3842V98.1447V97.9052L115 34.2759ZM4.8076 38.3576L27.4239 51.3231V80.6174L4.8076 93.5828V38.3576ZM32.2354 54.2058L55.0915 67.4127V93.8264L32.2354 80.6195V54.2058ZM57.4983 36.9174L80.3543 50.1242L57.4983 63.3311L34.6422 50.1242L57.4983 36.9174ZM59.9032 67.4127L82.7593 54.2058V80.6195L59.9032 93.8264V67.4127ZM85.1661 47.2433L59.9032 32.5961V6.42207L107.782 34.2761L85.1661 47.2433ZM55.0918 32.5961L29.8289 47.2433L7.21256 34.2778L55.0909 6.42378L55.0918 32.5961ZM29.8289 84.9416L55.0918 99.3495V125.522L7.21342 97.9092L29.8289 84.9416ZM59.9032 99.3495L85.1661 84.9416L107.782 97.9071L59.9041 125.521L59.9032 99.3495ZM87.5725 80.6204V51.3261L110.189 38.3606V93.5875L87.5725 80.6204Z" fill="#0F1A43"/>
</svg>
